<?xml version="1.0" encoding="UTF-8" standalone="no"?>
<!-- Created with Inkscape (http://www.inkscape.org/) -->

<svg
   width="37.169678mm"
   height="37.169678mm"
   viewBox="0 0 37.169678 37.169678"
   version="1.1"
   id="svg1"
   xml:space="preserve"
   xmlns="http://www.w3.org/2000/svg"
   xmlns:svg="http://www.w3.org/2000/svg"><defs
     id="defs1" /><g
     id="layer1"
     transform="translate(-121.637,-65.548269)"><g
       id="g1"
       transform="translate(65.887372)"><rect
         style="display:none;fill:#808080;stroke:#808080;stroke-width:3.30301;stroke-linecap:round;stroke-linejoin:round"
         id="rect1"
         width="33.866665"
         height="33.866665"
         x="57.401138"
         y="67.199776" /><path
         style="display:inline;fill:#00ae42;fill-opacity:1"
         d="m 61.391916,95.762902 0.0227,-5.303529 3.88056,-1.532752 c 2.1343,-0.843013 4.82313,-1.905021 5.97517,-2.360017 l 2.09462,-0.827265 v 7.663553 7.663548 h -5.99791 -5.99791 z m 13.91336,-5.287145 c 0,-6.463133 0.0318,-10.579225 0.0817,-10.561284 0.0449,0.01617 2.7437,1.080297 5.99722,2.364729 l 5.91551,2.33533 v 8.22595 8.225958 h -5.99723 -5.99722 z M 61.370556,77.792543 V 67.199775 h 5.99722 5.99722 v 8.228364 8.228365 l -5.84288,2.305308 c -3.21358,1.267919 -5.91233,2.331901 -5.99722,2.364404 -0.14646,0.05608 -0.15434,-0.481605 -0.15434,-10.533673 z m 19.93194,2.384054 -5.95312,-2.357986 -0.0227,-5.309418 -0.0227,-5.309418 h 5.99791 5.99791 v 7.672916 c 0,4.220104 -0.01,7.670436 -0.022,7.667404 -0.0121,-0.003 -2.70096,-1.066605 -5.97518,-2.363498 z"
         id="path1" /><path
         style="fill:none;fill-opacity:1;stroke:#ae0000;stroke-width:2.54559;stroke-linecap:round;stroke-linejoin:round;stroke-opacity:1"
         d="m 60.395398,93.868511 c 3.67445,0 3.67445,0 3.67445,0 l 3.98464,-6.031757 4.77814,13.027896 5.76189,-15.259529 4.49708,9.167781 h 6.7446"
         id="path2" /></g></g></svg>
