<?xml version="1.0" encoding="UTF-8" standalone="no"?>
<!-- Created with Inkscape (http://www.inkscape.org/) -->

<svg
   width="152.25mm"
   height="152.25mm"
   viewBox="0 0 152.24999 152.25"
   version="1.1"
   id="svg1"
   xml:space="preserve"
   inkscape:version="1.3 (0e150ed6c4, 2023-07-21)"
   sodipodi:docname="Spool.svg"
   inkscape:export-filename="..\client\src\components\icons\IconSpool.svg"
   inkscape:export-xdpi="96"
   inkscape:export-ydpi="96"
   xmlns:inkscape="http://www.inkscape.org/namespaces/inkscape"
   xmlns:sodipodi="http://sodipodi.sourceforge.net/DTD/sodipodi-0.dtd"
   xmlns="http://www.w3.org/2000/svg"
   xmlns:svg="http://www.w3.org/2000/svg"><sodipodi:namedview
     id="namedview1"
     pagecolor="#ffffff"
     bordercolor="#000000"
     borderopacity="0.25"
     inkscape:showpageshadow="2"
     inkscape:pageopacity="0.0"
     inkscape:pagecheckerboard="0"
     inkscape:deskcolor="#d1d1d1"
     inkscape:document-units="mm"
     inkscape:zoom="0.44267568"
     inkscape:cx="578.30148"
     inkscape:cy="143.44587"
     inkscape:window-width="1920"
     inkscape:window-height="1057"
     inkscape:window-x="-8"
     inkscape:window-y="-8"
     inkscape:window-maximized="1"
     inkscape:current-layer="layer1" /><defs
     id="defs1"><inkscape:path-effect
       effect="copy_rotate"
       starting_point="14.724804,0"
       origin="0,0"
       id="path-effect1453"
       is_visible="true"
       lpeversion="1.2"
       lpesatellites=""
       method="normal"
       num_copies="6"
       starting_angle="0"
       rotation_angle="60"
       gap="-0.01"
       copies_to_360="true"
       mirror_copies="false"
       split_items="false"
       link_styles="false" /></defs><g
     inkscape:label="Layer 1"
     inkscape:groupmode="layer"
     id="layer1"
     transform="translate(12.960612,12.960613)"><g
       id="g1453"
       inkscape:label="Spool"><circle
         style="fill:none;fill-opacity:1;stroke:#000000;stroke-width:3.04893;stroke-linecap:round;stroke-linejoin:round;stroke-dasharray:none;stroke-opacity:1"
         id="path1448"
         cx="63.164387"
         cy="63.164387"
         r="61.639923"
         inkscape:export-filename="..\client\src\components\icons\IconSpool.svg"
         inkscape:export-xdpi="96"
         inkscape:export-ydpi="96" /><circle
         style="fill:none;fill-opacity:1;stroke:#000000;stroke-width:3;stroke-linecap:round;stroke-linejoin:round;stroke-dasharray:none;stroke-opacity:1"
         id="path1448-1"
         cx="63.164387"
         cy="63.164387"
         r="16.491133" /><path
         id="path1449"
         style="fill:none;stroke:#000000;stroke-width:3;stroke-linecap:round;stroke-linejoin:round;stroke-dasharray:none"
         d="m 14.50425,-39.600195 c 0,8.040111 -6.46477,16.782006 -14.50425,16.881966 -8.039474,0.1 -14.66499,-8.479175 -14.864894,-16.516796 -0.199904,-8.037615 -1.128881,-15.483435 14.682264,-15.548615 16.14414,-0.0666 14.26903,6.42318 14.66872,14.453335 m -41.52874,7.969159 c 6.962941,4.020055 11.301259,13.989658 7.368087,21.002031 -3.933135,7.0123892 -14.675676,8.4606669 -21.736412,4.6149783 -7.060731,-3.8456853 -13.973489,-6.7640783 -6.124364,-20.4895213 8.014393,-14.014535 12.697152,-9.145752 19.851315,-5.476816 M -41.5469,7.2390485 c 6.962941,-4.0200555 17.766029,-2.7923479 21.872337,4.1200655 4.106339,6.912389 -0.01069,16.939842 -6.871518,21.131774 -6.860827,4.19193 -12.844608,8.719357 -20.806628,-4.940906 -8.129747,-13.947935 -1.571878,-15.568932 5.182595,-19.9301514 M -14.50425,39.600195 c 0,-8.040111 6.46477,-16.782006 14.50425,-16.881966 8.039474,-0.1 14.66499,8.479175 14.864894,16.516796 C 15.064798,47.27264 15.993775,54.71846 0.18263,54.78364 -15.96151,54.85024 -14.0864,48.36046 -14.48609,40.330305 M 27.04265,32.361146 C 20.079709,28.341091 15.741391,18.371488 19.674563,11.359115 23.607698,4.3467258 34.350239,2.8984481 41.410975,6.7441367 48.471706,10.589822 55.384464,13.508215 47.535339,27.233658 39.520946,41.248193 34.838187,36.37941 27.684024,32.710474 M 41.5469,-7.2390485 c -6.962941,4.0200555 -17.766029,2.7923479 -21.872337,-4.1200665 -4.106339,-6.912388 0.01069,-16.939841 6.871518,-21.131773 6.860827,-4.19193 12.844608,-8.719357 20.806628,4.940906 8.129747,13.947935 1.571878,15.568932 -5.182595,19.9301514"
         sodipodi:nodetypes="csssc"
         inkscape:path-effect="#path-effect1453"
         inkscape:original-d="m 14.50425,-39.600195 c 0,8.040111 -6.46477,16.782006 -14.50425,16.881966 -8.039474,0.1 -14.66499,-8.479175 -14.864894,-16.516796 -0.199904,-8.037615 -1.128881,-15.483435 14.682264,-15.548615 16.14414,-0.0666 14.26903,6.42318 14.66872,14.453335"
         transform="translate(63.164388,63.164388)" /></g><rect
       style="fill:none;fill-opacity:1;stroke:#000000;stroke-width:2.25;stroke-linecap:round;stroke-linejoin:round;stroke-dasharray:none;stroke-opacity:1"
       id="rect1453"
       width="150"
       height="150"
       x="-11.835612"
       y="-11.835613"
       inkscape:label="Frame" /></g></svg>
